<?xml version="1.0" encoding="UTF-8" standalone="no"?>
<svg xmlns="http://www.w3.org/2000/svg" xmlns:xlink="http://www.w3.org/1999/xlink" xmlns:serif="http://www.serif.com/" width="100%" height="100%" viewBox="0 0 7680 7680" version="1.1" xml:space="preserve" style="fill-rule:evenodd;clip-rule:evenodd;stroke-linejoin:round;stroke-miterlimit:2;">
    <rect id="little-owl__logo--rev" x="-0" y="0" width="7680" height="7680" style="fill:none;"></rect>
    <g>
        <path d="M4269.02,3462c-270.815,436.658 -724.02,748.571 -1252.86,828.985c-314.667,285.389 -731.083,460.576 -1188.05,464.359c276.633,-103.021 528.205,-257.701 742.964,-452.286c81.203,-73.574 157.142,-152.854 227.183,-237.203c164.175,-5.985 323.99,-29.182 477.692,-67.838c376.213,-94.619 715.801,-281.858 993.065,-536.017Z" style="fill:#fff;"></path>
        <path d="M4003.17,2912.47c-472.664,-143.609 -817.056,-583.138 -817.056,-1102.47c0,-635.806 516.194,-1152 1152,-1152c217.63,-0 421.246,60.479 594.944,165.531c-106.008,-32.208 -218.469,-49.531 -334.944,-49.531c-635.806,-0 -1152,516.194 -1152,1152c0,418.176 223.297,784.61 557.056,986.469Z" style="fill:#fff;"></path>
        <path d="M6020.01,2912.47c472.664,-143.609 817.056,-583.138 817.056,-1102.47c0,-635.806 -516.194,-1152 -1152,-1152c-217.63,-0 -421.246,60.479 -594.944,165.531c106.009,-32.208 218.469,-49.531 334.944,-49.531c635.806,-0 1152,516.194 1152,1152c0,418.176 -223.296,784.61 -557.056,986.469Z" style="fill:#fff;"></path>
        <path d="M4224.16,1475.9c97.483,-58.999 260.643,31.922 364.127,202.908c103.484,170.987 108.355,357.705 10.872,416.704c-97.483,58.998 -260.643,-31.922 -364.127,-202.909c-103.483,-170.986 -108.355,-357.705 -10.872,-416.703Z" style="fill:#fff;"></path>
        <path d="M5842.08,1456.34c98.68,56.973 97.664,243.752 -2.267,416.839c-99.932,173.087 -261.18,267.356 -359.86,210.383c-98.681,-56.974 -97.665,-243.753 2.267,-416.839c99.931,-173.087 261.179,-267.356 359.86,-210.383Z" style="fill:#fff;"></path>
        <path d="M5064.52,2327.32c89.785,-0 162.68,58.262 162.68,215.747c-0,157.484 -162.68,354.938 -162.68,354.938c-0,-0 -162.68,-197.454 -162.68,-354.938c-0,-157.485 72.894,-215.747 162.68,-215.747Z" style="fill:#fff;"></path>
        <path d="M1565.96,4540.79c-5.286,-63.627 -7.983,-127.984 -7.983,-192.967c0,-524.508 175.654,-1008.31 471.294,-1395.75c-23.196,-127.225 -35.313,-258.294 -35.313,-392.172c0,-1200.91 974.991,-2175.91 2175.91,-2175.91c239.689,-0 470.379,38.84 686.113,110.563c-94.332,-11.782 -190.429,-17.852 -287.933,-17.852c-1240.12,-0 -2252.71,981.933 -2302.02,2210.05c-1.25,31.13 -1.881,62.417 -1.881,93.851c-0,168.904 18.215,333.587 52.786,492.191c-52.898,41.841 -103.685,86.236 -152.173,132.998c-309.227,298.218 -524.99,692.713 -598.798,1135Z" style="fill:#fff;"></path>
        <path d="M861.051,5587.57c11.747,-65.74 26.139,-130.568 43.061,-194.37c100.376,-378.434 289.796,-720.779 544.429,-1003.2c-192.646,323.894 -312.213,696.234 -335.891,1094.21c268.975,102.6 560.779,158.804 865.607,158.804c121.055,-0 240.055,-8.864 356.388,-25.977c390.237,-257.63 702.008,-624.669 891.472,-1057.28c-94.261,362.37 -270.077,691.988 -506.641,968.046c-63.781,74.429 -131.978,144.964 -204.183,211.199c-176.555,46.399 -360.926,73.426 -550.701,78.669c-22.686,0.627 -45.449,0.942 -68.285,0.942c-275.495,0 -540.352,-45.907 -787.332,-130.482c-84.849,-29.055 -167.588,-62.674 -247.924,-100.563Z" style="fill:#fff;"></path>
        <path d="M6488.44,2576.51c8.612,80.906 13.029,163.057 13.029,246.231c-0,1271.61 -1032.39,2304 -2304,2304c-268.479,-0 -526.294,-46.021 -765.979,-130.597c204.314,63.59 421.503,97.852 646.63,97.852c1200.97,0 2176,-975.033 2176,-2176c0,-53.477 -1.933,-106.507 -5.734,-159.022c87.913,-50.229 168.586,-111.706 240.054,-182.464Z" style="fill:#fff;"></path>
        <path d="M4066.12,6141.15c-99.566,-112.833 -160.008,-260.991 -160.008,-423.154c0,-157.448 56.979,-301.693 151.423,-413.223c69.717,-2.526 138.932,-7.033 207.59,-13.466c-145.029,159.229 -233.497,370.862 -233.497,602.996c0,85.603 12.031,168.419 34.492,246.847Zm-633.967,-867.354c95.959,111.934 153.959,257.347 153.959,416.2c0,154.969 -55.198,297.148 -146.99,407.93c9.844,-53.152 14.99,-107.945 14.99,-163.93c0,-298.164 -145.954,-562.507 -370.253,-725.419c114.098,27.258 230.292,49.094 348.294,65.219Zm1166.81,802.435c-83.288,-108.043 -132.846,-243.397 -132.846,-390.235c0,-176.685 71.752,-336.743 187.682,-452.601c79.051,-16.237 157.163,-35.06 234.243,-56.378c1.797,1.139 3.588,2.286 5.373,3.443c-195.195,164.415 -319.298,410.597 -319.298,685.536c0,72.395 8.605,142.796 24.846,210.235Z" style="fill:#fff;"></path>
        <path d="M3746,6185.32c1,-0.006 2.001,-0.008 3.002,-0.008c284.442,-0 515.374,230.931 515.374,515.373c-0,265.545 -201.266,484.452 -459.441,512.368c149.821,-112.906 246.755,-292.319 246.755,-494.193c-0,-227.257 -122.842,-426.049 -305.69,-533.54Z" style="fill:#fff;"></path>
        <path d="M4182.59,6185.32c1,-0.006 2.001,-0.008 3.002,-0.008c284.443,-0 515.374,230.931 515.374,515.373c-0,265.545 -201.265,484.452 -459.441,512.368c149.822,-112.906 246.755,-292.319 246.755,-494.193c0,-227.257 -122.842,-426.049 -305.69,-533.54Z" style="fill:#fff;"></path>
        <path d="M4835.78,6138.44c1,-0.006 2,-0.009 3.002,-0.009c284.442,0 515.373,230.931 515.373,515.374c0,265.544 -201.265,484.452 -459.44,512.367c149.821,-112.906 246.754,-292.318 246.754,-494.192c0,-227.257 -122.841,-426.049 -305.689,-533.54Z" style="fill:#fff;"></path>
        <path d="M5264.83,6101.01c1,-0.006 2.001,-0.009 3.002,-0.009c284.442,-0 515.374,230.931 515.374,515.374c-0,265.544 -201.266,484.452 -459.441,512.367c149.821,-112.906 246.755,-292.319 246.755,-494.192c-0,-227.257 -122.842,-426.049 -305.69,-533.54Z" style="fill:#fff;"></path>
        <path d="M459.964,6975.18c862.432,-143.446 1489.72,-204.042 2372.15,-283.153c312.127,-27.983 625.43,-51.864 939.851,-71.59c36.241,70.162 56.711,149.766 56.711,234.111c-0,24.535 -1.733,48.669 -5.081,72.287c-333.401,20.292 -665.549,45.257 -996.378,74.83c-906.67,81.047 -1557.68,145.403 -2443.22,294.331c49.589,-78.769 78.284,-171.984 78.284,-271.847c-0,-16.516 -0.785,-32.851 -2.32,-48.969Zm5604.63,-424.184c347.221,0.681 803.153,6.425 1147.95,17.162c-0.663,10.65 -1,21.388 -1,32.203c0,103.94 31.086,200.678 84.461,281.421c-378.646,-12.833 -868.699,-19.644 -1250.29,-20.341c22.255,-57.32 34.465,-119.634 34.465,-184.777c0,-43.355 -5.408,-85.457 -15.587,-125.668Z" style="fill:#fff;"></path>
    </g>
</svg>
