<?xml version="1.0" encoding="UTF-8" standalone="no"?>
<svg xmlns="http://www.w3.org/2000/svg" xmlns:xlink="http://www.w3.org/1999/xlink" xmlns:serif="http://www.serif.com/" width="100%" height="100%" viewBox="0 0 4362 1024" version="1.1" xml:space="preserve" style="fill-rule:evenodd;clip-rule:evenodd;stroke-linejoin:round;stroke-miterlimit:2;">
    <rect id="litle-owl__logotype--portrait--pms647c" x="0.251" y="0" width="4361.75" height="1024" style="fill:none;"></rect>
    <clipPath id="_clip1">
        <rect x="0.251" y="0" width="4361.75" height="1024"></rect>
    </clipPath>
    <g clip-path="url(#_clip1)">
        <rect x="0.251" y="0" width="1024" height="1024" style="fill:#fff;"></rect>
        <path d="M1024.25,0l0,1024l-1024,0l0,-1024l1024,0Zm-16.666,16.667c-0,-0 -990.667,-0 -990.667,-0c-0,131.05 -0,990.666 -0,990.666c-0,0 990.667,0 990.667,0l-0,-990.666Z" style="fill:#236192;"></path>
        <rect x="1024.25" y="0" width="3337.75" height="1024" style="fill:#236192;"></rect>
        <g>
            <path d="M567.865,463c-35.106,56.604 -93.854,97.037 -162.407,107.461c-40.79,36.995 -94.77,59.704 -154.006,60.195c35.859,-13.355 68.471,-33.406 96.31,-58.63c10.526,-9.537 20.37,-19.814 29.449,-30.748c21.282,-0.776 41.999,-3.783 61.923,-8.794c48.769,-12.266 92.789,-36.537 128.731,-69.484Z" style="fill:#236192;"></path>
            <path d="M533.403,391.764c-61.271,-18.615 -105.914,-75.591 -105.914,-142.912c-0,-82.419 66.914,-149.333 149.333,-149.333c28.211,-0 54.606,7.839 77.122,21.457c-13.741,-4.175 -28.32,-6.42 -43.418,-6.42c-82.42,-0 -149.334,66.914 -149.334,149.333c0,54.208 28.946,101.709 72.211,127.875Z" style="fill:#236192;"></path>
            <path d="M794.844,391.764c61.272,-18.615 105.915,-75.591 105.915,-142.912c0,-82.419 -66.914,-149.333 -149.333,-149.333c-28.211,-0 -54.606,7.839 -77.123,21.457c13.742,-4.175 28.321,-6.42 43.419,-6.42c82.419,-0 149.333,66.914 149.333,149.333c0,54.208 -28.945,101.709 -72.211,127.875Z" style="fill:#236192;"></path>
            <path d="M562.05,205.542c12.636,-7.648 33.787,4.138 47.201,26.303c13.415,22.165 14.046,46.369 1.41,54.017c-12.637,7.648 -33.787,-4.138 -47.202,-26.303c-13.415,-22.165 -14.046,-46.369 -1.409,-54.017Z" style="fill:#1b668d;"></path>
            <path d="M771.78,203.007c12.792,7.386 12.661,31.598 -0.293,54.035c-12.955,22.437 -33.857,34.657 -46.649,27.272c-12.792,-7.386 -12.66,-31.598 0.294,-54.035c12.954,-22.437 33.856,-34.657 46.648,-27.272Z" style="fill:#1b668d;"></path>
            <path d="M670.985,315.911c11.639,0 21.088,7.553 21.088,27.967c-0,20.415 -21.088,46.011 -21.088,46.011c-0,-0 -21.089,-25.596 -21.089,-46.011c0,-20.414 9.45,-27.967 21.089,-27.967Z" style="fill:#1b668d;"></path>
            <path d="M217.468,602.844c-0.685,-8.248 -1.035,-16.591 -1.035,-25.015c0,-67.991 22.77,-130.707 61.094,-180.93c-3.007,-16.492 -4.578,-33.483 -4.578,-50.837c0,-155.674 126.388,-282.062 282.062,-282.062c31.071,-0 60.975,5.035 88.941,14.332c-12.229,-1.527 -24.686,-2.314 -37.325,-2.314c-160.757,0 -292.018,127.288 -298.41,286.488c-0.162,4.035 -0.244,8.091 -0.244,12.166c0,21.895 2.361,43.242 6.843,63.802c-6.857,5.424 -13.441,11.179 -19.726,17.241c-40.085,38.658 -68.055,89.796 -77.622,147.129Z" style="fill:#236192;"></path>
            <path d="M126.091,738.537c1.523,-8.521 3.389,-16.925 5.582,-25.196c13.012,-49.056 37.566,-93.434 70.574,-130.045c-24.972,41.986 -40.472,90.253 -43.541,141.843c34.867,13.3 72.694,20.585 112.208,20.585c15.692,0 31.118,-1.149 46.199,-3.367c50.586,-33.396 91.001,-80.976 115.561,-137.054c-12.219,46.974 -35.01,89.702 -65.676,125.487c-8.268,9.648 -17.108,18.792 -26.468,27.378c-22.887,6.014 -46.787,9.518 -71.387,10.198c-2.941,0.081 -5.892,0.122 -8.852,0.122c-35.712,-0 -70.046,-5.951 -102.061,-16.915c-10.999,-3.766 -21.725,-8.124 -32.139,-13.036Z" style="fill:#236192;"></path>
            <path d="M855.567,348.215c1.117,10.488 1.689,21.137 1.689,31.919c0,164.838 -133.828,298.666 -298.667,298.666c-34.802,0 -68.223,-5.965 -99.293,-16.929c26.485,8.243 54.639,12.685 83.822,12.685c155.681,-0 282.074,-126.394 282.074,-282.075c0,-6.932 -0.25,-13.806 -0.743,-20.613c11.396,-6.512 21.854,-14.481 31.118,-23.653Z" style="fill:#236192;"></path>
            <path d="M541.564,810.298c-12.907,-14.627 -20.742,-33.832 -20.742,-54.854c0,-20.41 7.386,-39.108 19.629,-53.565c9.037,-0.328 18.01,-0.912 26.91,-1.746c-18.8,20.641 -30.268,48.075 -30.268,78.166c-0,11.097 1.559,21.832 4.471,31.999Zm-82.181,-112.435c12.439,14.51 19.958,33.36 19.958,53.952c-0,20.088 -7.156,38.519 -19.055,52.88c1.276,-6.89 1.943,-13.993 1.943,-21.251c0,-38.65 -18.92,-72.917 -47.995,-94.035c14.79,3.533 29.852,6.364 45.149,8.454Zm151.252,104.019c-10.796,-14.005 -17.22,-31.551 -17.22,-50.586c-0,-22.903 9.301,-43.652 24.329,-58.67c10.247,-2.105 20.373,-4.545 30.365,-7.308c0.233,0.147 0.465,0.296 0.696,0.446c-25.303,21.313 -41.39,53.225 -41.39,88.866c-0,9.384 1.115,18.51 3.22,27.252Z" style="fill:#236192;"></path>
            <path d="M500.066,816.023c0.13,-0.001 0.259,-0.001 0.389,-0.001c36.872,-0 66.808,29.935 66.808,66.807c-0,34.423 -26.09,62.8 -59.557,66.418c19.421,-14.636 31.987,-37.893 31.987,-64.062c-0,-29.459 -15.924,-55.228 -39.627,-69.162Z" style="fill:#236192;"></path>
            <path d="M556.661,816.023c0.13,-0.001 0.26,-0.001 0.389,-0.001c36.873,-0 66.808,29.935 66.808,66.807c0,34.423 -26.09,62.8 -59.557,66.418c19.421,-14.636 31.987,-37.893 31.987,-64.062c-0,-29.459 -15.924,-55.228 -39.627,-69.162Z" style="fill:#236192;"></path>
            <path d="M641.334,809.947c0.129,-0.001 0.259,-0.002 0.389,-0.002c36.872,0 66.807,29.936 66.807,66.808c0,34.423 -26.09,62.799 -59.557,66.418c19.422,-14.636 31.987,-37.893 31.987,-64.062c-0,-29.459 -15.924,-55.228 -39.626,-69.162Z" style="fill:#236192;"></path>
            <path d="M696.951,805.094c0.13,-0.001 0.259,-0.001 0.389,-0.001c36.872,-0 66.808,29.935 66.808,66.807c-0,34.423 -26.09,62.8 -59.557,66.418c19.421,-14.636 31.986,-37.893 31.986,-64.062c0,-29.459 -15.924,-55.228 -39.626,-69.162Z" style="fill:#236192;"></path>
            <path d="M74.098,918.413c111.797,-18.595 193.113,-26.45 307.502,-36.705c40.461,-3.628 81.074,-6.723 121.832,-9.28c4.698,9.095 7.352,19.414 7.352,30.347c-0,3.181 -0.225,6.309 -0.659,9.371c-43.219,2.63 -86.275,5.867 -129.16,9.7c-117.531,10.506 -201.922,18.848 -316.714,38.154c6.428,-10.211 10.148,-22.294 10.148,-35.239c0,-2.141 -0.102,-4.259 -0.301,-6.348Zm726.526,-54.987c45.011,0.088 104.113,0.833 148.808,2.225c-0.086,1.38 -0.129,2.772 -0.129,4.174c-0,13.474 4.029,26.014 10.948,36.481c-49.083,-1.664 -112.609,-2.547 -162.074,-2.637c2.885,-7.431 4.468,-15.508 4.468,-23.953c0,-5.62 -0.701,-11.078 -2.021,-16.29Z" style="fill:#236192;"></path>
        </g>
        <path d="M1323.85,575.8l-109.2,-0l0,-208.8l-62.4,-0l0,260l171.6,-0l0,-51.2Z" style="fill:#fff;fill-rule:nonzero;"></path>
        <path d="M1384.25,395.4c21.2,-0 38.4,-17.2 38.4,-38c0,-21.2 -17.2,-38.4 -38.4,-38.4c-21.2,-0 -38,17.2 -38,38.4c0,20.8 16.8,38 38,38Zm23.2,236.4c10.8,-0 21.2,-2.8 29.2,-8.4l2.8,-4.4l-6.4,-40.8l-4.4,-2.4c-1.2,1.2 -2.8,2 -6,2c-4.8,-0 -7.6,-3.2 -7.6,-10.8l0,-140l-62,-0l0,149.2c0,37.6 20.8,55.6 54.4,55.6Z" style="fill:#fff;fill-rule:nonzero;"></path>
        <path d="M1597.45,573.8l-4.8,-2c-5.6,4.8 -13.6,7.6 -20,7.6c-14,-0 -24,-7.6 -24,-28.4l0,-78.4l58.8,-0l0,-45.6l-58.8,-0l0,-62.4l-4.8,-2.8l-56.4,6l0,59.2l-34.8,-0l0,45.6l34.8,-0l0,84.4c0,52.4 35.2,74.8 74.4,74.8c19.2,-0 36.8,-6 50.4,-16l2,-4.8l-16.8,-37.2Z" style="fill:#fff;fill-rule:nonzero;"></path>
        <path d="M1769.05,573.8l-4.8,-2c-5.6,4.8 -13.6,7.6 -20,7.6c-14,-0 -24,-7.6 -24,-28.4l0,-78.4l58.8,-0l0,-45.6l-58.8,-0l0,-62.4l-4.8,-2.8l-56.4,6l0,59.2l-34.8,-0l0,45.6l34.8,-0l0,84.4c0,52.4 35.2,74.8 74.4,74.8c19.2,-0 36.8,-6 50.4,-16l2,-4.8l-16.8,-37.2Z" style="fill:#fff;fill-rule:nonzero;"></path>
        <path d="M1814.25,576.2c0,37.6 20.8,55.6 54.4,55.6c10.8,-0 21.2,-2.8 29.2,-8.4l2.8,-4.4l-6.4,-40.8l-4.4,-2.4c-1.2,1.2 -2.8,2 -6,2c-4.8,-0 -7.6,-3.2 -7.6,-10.8l0,-210l-4.8,-2.8l-57.2,6.4l0,215.6Z" style="fill:#fff;fill-rule:nonzero;"></path>
        <path d="M2131.05,540.6c0.8,-4.8 1.2,-10 1.2,-16c0,-30.4 -10.8,-56 -29.2,-74.4c-18.4,-17.6 -44,-28 -73.6,-28c-62.8,-0 -106.8,44.4 -106.8,105.2c0,62.4 47.6,104.4 110.4,104.4c30.8,-0 67.6,-10 90,-36.4l0,-4.8l-27.6,-26.4l-4.4,-0c-13.6,14.4 -34.8,22 -55.2,22c-27.6,-0 -50.4,-15.2 -53.2,-45.6l148.4,-0Zm-103.2,-74.8c12.8,-0 24,4.4 32,12.8c6.4,6.4 10.8,16 12.4,26.8l-89.2,-0c3.2,-24 20,-39.6 44.8,-39.6Z" style="fill:#fff;fill-rule:nonzero;"></path>
        <path d="M2387.85,631.8c80.8,-0 142.4,-58 142.4,-134.8c0,-77.2 -61.6,-134.8 -142.4,-134.8c-81.2,-0 -142.8,57.6 -142.8,134.8c0,77.2 61.6,134.8 142.8,134.8Zm0,-56.4c-44,-0 -78.8,-32.8 -78.8,-78.4c0,-46 34.8,-78.4 78.8,-78.4c44,-0 78.8,32.4 78.8,78.4c0,45.6 -34.8,78.4 -78.8,78.4Z" style="fill:#fff;fill-rule:nonzero;"></path>
        <path d="M2868.65,427l-62,-0l-2.8,4.4c13.6,19.2 23.2,55.6 22.8,92c-0.8,34 -17.6,56 -40.8,56c-21.6,-0 -34,-13.2 -34,-36.4l0,-116l-56.4,-0l0,115.6c0,22.4 -13.6,36.8 -34.4,36.8c-20.4,-0 -33.6,-13.6 -33.6,-34.4l0,-118l-61.6,-0l0,117.6c0,62 41.6,87.2 94.4,87.2c27.6,-0 48.8,-10 63.6,-26c14,16.8 35.6,26 62.8,26c62,-0 100,-42 100.8,-112c0.4,-31.2 -6.8,-66 -18.8,-92.8Z" style="fill:#fff;fill-rule:nonzero;"></path>
        <path d="M2927.45,576.2c0,37.6 20.8,55.6 54.4,55.6c10.8,-0 21.2,-2.8 29.2,-8.4l2.8,-4.4l-6.4,-40.8l-4.4,-2.4c-1.2,1.2 -2.8,2 -6,2c-4.8,-0 -7.6,-3.2 -7.6,-10.8l0,-210l-4.8,-2.8l-57.2,6.4l0,215.6Z" style="fill:#fff;fill-rule:nonzero;"></path>
        <path d="M3311.45,575.8l-109.2,-0l0,-208.8l-62.4,-0l0,260l171.6,-0l0,-51.2Z" style="fill:#fff;fill-rule:nonzero;"></path>
        <path d="M3435.45,631.8c64,-0 110.4,-44.4 110.4,-104.8c0,-60.4 -46.4,-104.8 -110.4,-104.8c-64,-0 -110.8,44.4 -110.8,104.8c0,60.4 46.8,104.8 110.8,104.8Zm0,-52.8c-29.2,-0 -49.6,-22 -49.6,-52c0,-30 20.8,-52 49.6,-52c28.8,-0 49.6,22 49.6,52c0,30 -20.8,52 -49.6,52Z" style="fill:#fff;fill-rule:nonzero;"></path>
        <path d="M3801.05,430.6c-8,-5.6 -18.4,-8.4 -29.2,-8.4c-20,-0 -34.8,7.6 -42.8,22.8c-16.4,-14 -38,-22.8 -62.8,-22.8c-54.4,-0 -95.2,40 -95.2,94c0,53.6 40.8,93.6 95.2,93.6c21.6,-0 41.2,-6.8 56.4,-18l0,12.4c0,30.4 -24.8,43.6 -52.8,43.6c-26.4,-0 -50.8,-12.4 -64.8,-28.8l-4,-0l-26,31.6l0,4.4c20,22.8 52.4,38 94.4,38c61.2,-0 110,-32 110,-99.6l0,-106.4c0,-7.6 2.8,-10.8 7.6,-10.8c3.2,-0 4.8,0.8 6,2l4.4,-2.4l6.4,-40.8l-2.8,-4.4Zm-121.6,133.6c-28.4,-0 -47.6,-20 -47.6,-48c0,-28 19.2,-48.4 47.2,-48.4c28.4,-0 47.6,20.4 47.6,48.4c0,28 -19.2,48 -47.2,48Z" style="fill:#fff;fill-rule:nonzero;"></path>
        <path d="M3911.05,632.2c49.6,-0 82.8,-24 82.8,-60.8c0,-38.4 -25.6,-53.2 -59.6,-66.4c-24.4,-9.2 -42.4,-13.6 -42.4,-24.8c0,-8 8.8,-13.6 21.6,-13.6c15.6,-0 34.4,7.2 48.8,21.2l4.4,-0l27.2,-28.8l0,-4.4c-15.2,-20 -46.8,-32.8 -80.4,-32.8c-49.2,-0 -80.4,23.6 -80.4,60.8c0,41.2 39.2,54.4 72.4,64.8c16,5.6 30,10.4 30,22.8c0,9.2 -9.2,15.6 -24,15.6c-22,-0 -46,-12 -58,-25.6l-4.4,-0l-27.6,30.8l0,4.4c18,22.4 52.4,36.8 89.6,36.8Z" style="fill:#fff;fill-rule:nonzero;"></path>
    </g>
</svg>
